<svg id="Layer_1" data-name="Layer 1" xmlns="http://www.w3.org/2000/svg" width="850.35" height="59.52" viewBox="0 0 850.35 59.52"><defs><style>.cls-1{fill:#4a5851;}</style></defs><title>fancy-line--dark-green</title><g id="d97LCk.tif"><path class="cls-1" d="M210.38,721.33c-2.68-10.07,2.72-17,10.59-20.58,9.72-4.42,20.31-8.09,30.85-9.33,32.51-3.83,64.57.84,96.06,8.81,44.14,11.17,88,23.3,132.14,34.56,28.41,7.25,57.11,12.7,86.75,9.57,13.41-1.42,26-5.1,37.48-12.22,9-5.58,17.31-12.51,15.48-24.23-1.79-11.48-11.19-16.46-21.67-19-12.54-3-25-3-36.93,2.59-8.13,3.83-10,8.07-7.36,15.79-.73-9.93,6.35-13.26,13.36-15.34,14.67-4.35,25.92-3.23,39.36,3.29,6.38,3.09,10.73,8.57,10.28,16.37s-5.3,12.28-11.88,15.23c-13.69,6.15-28.44,6.67-43,7.09-34.27,1-67.75-5.3-101-12.53-43.5-9.45-86.8-19.88-130.45-28.52-31.45-6.22-64.08-11.8-95.15-1.31-9.2,3.11-16.53,5.61-22.15,11.7C209.45,707.21,205.93,714.36,210.38,721.33Z" transform="translate(-208.3 -685.74)"/></g><g id="d97LCk.tif-2" data-name="d97LCk.tif"><path class="cls-1" d="M1056.56,721.33c2.68-10.07-2.72-17-10.59-20.58-9.72-4.42-20.31-8.09-30.85-9.33-32.51-3.83-64.57.84-96.06,8.81-44.14,11.17-88,23.3-132.14,34.56-28.41,7.25-57.11,12.7-86.75,9.57-13.41-1.42-26-5.1-37.48-12.22-9-5.58-17.31-12.51-15.48-24.23,1.79-11.48,11.19-16.46,21.67-19,12.54-3,25-3,36.93,2.59,8.13,3.83,10,8.07,7.36,15.79.73-9.93-6.35-13.26-13.36-15.34-14.67-4.35-25.92-3.23-39.36,3.29-6.38,3.09-10.73,8.57-10.28,16.37s5.3,12.28,11.88,15.23c13.69,6.15,28.44,6.67,43,7.09,34.27,1,67.75-5.3,101-12.53,43.5-9.45,86.8-19.88,130.45-28.52,31.45-6.22,64.08-11.8,95.15-1.31,9.2,3.11,16.53,5.61,22.15,11.7C1057.49,707.21,1061,714.36,1056.56,721.33Z" transform="translate(-208.3 -685.74)"/></g></svg>